TITLE ""
FILE "Step2_Track18.mp3" MP3
  TRACK 01 AUDIO
    TITLE "Step2_Track18_01"
    INDEX 01 00:00:00
  TRACK 02 AUDIO
    TITLE "Step2_Track18_02"
    INDEX 01 00:00:22
  TRACK 03 AUDIO
    TITLE "Step2_Track18_03"
    INDEX 01 00:01:63
  TRACK 04 AUDIO
    TITLE "Step2_Track18_04"
    INDEX 01 00:02:48
  TRACK 05 AUDIO
    TITLE "Step2_Track18_05"
    INDEX 01 00:03:46
  TRACK 06 AUDIO
    TITLE "Step2_Track18_06"
    INDEX 01 00:03:73
  TRACK 07 AUDIO
    TITLE "Step2_Track18_07"
    INDEX 01 00:05:62
  TRACK 08 AUDIO
    TITLE "Step2_Track18_08"
    INDEX 01 00:06:15
  TRACK 09 AUDIO
    TITLE "Step2_Track18_09"
    INDEX 01 00:07:10
  TRACK 10 AUDIO
    TITLE "Step2_Track18_10"
    INDEX 01 00:07:12
  TRACK 11 AUDIO
    TITLE "Step2_Track18_11"
    INDEX 01 00:09:11
  TRACK 12 AUDIO
    TITLE "Step2_Track18_12"
    INDEX 01 00:09:33
  TRACK 13 AUDIO
    TITLE "Step2_Track18_13"
    INDEX 01 00:10:24
  TRACK 14 AUDIO
    TITLE "Step2_Track18_14"
    INDEX 01 00:10:26
  TRACK 15 AUDIO
    TITLE "Step2_Track18_15"
    INDEX 01 00:12:43
  TRACK 16 AUDIO
    TITLE "Step2_Track18_16"
    INDEX 01 00:12:68
  TRACK 17 AUDIO
    TITLE "Step2_Track18_17"
    INDEX 01 00:13:62
  TRACK 18 AUDIO
    TITLE "Step2_Track18_18"
    INDEX 01 00:13:72
  TRACK 19 AUDIO
    TITLE "Step2_Track18_19"
    INDEX 01 00:15:59
  TRACK 20 AUDIO
    TITLE "Step2_Track18_20"
    INDEX 01 00:16:09
  TRACK 21 AUDIO
    TITLE "Step2_Track18_21"
    INDEX 01 00:17:03
  TRACK 22 AUDIO
    TITLE "Step2_Track18_22"
    INDEX 01 00:17:13
  TRACK 23 AUDIO
    TITLE "Step2_Track18_23"
    INDEX 01 00:20:07
  TRACK 24 AUDIO
    TITLE "Step2_Track18_24"
    INDEX 01 00:20:25
  TRACK 25 AUDIO
    TITLE "Step2_Track18_25"
    INDEX 01 00:21:24
  TRACK 26 AUDIO
    TITLE "Step2_Track18_26"
    INDEX 01 00:21:26
  TRACK 27 AUDIO
    TITLE "Step2_Track18_27"
    INDEX 01 00:23:58
  TRACK 28 AUDIO
    TITLE "Step2_Track18_28"
    INDEX 01 00:24:05
  TRACK 29 AUDIO
    TITLE "Step2_Track18_29"
    INDEX 01 00:25:06
  TRACK 30 AUDIO
    TITLE "Step2_Track18_30"
    INDEX 01 00:25:08
  TRACK 31 AUDIO
    TITLE "Step2_Track18_31"
    INDEX 01 00:27:11
  TRACK 32 AUDIO
    TITLE "Step2_Track18_32"
    INDEX 01 00:27:37
  TRACK 33 AUDIO
    TITLE "Step2_Track18_33"
    INDEX 01 00:28:22
  TRACK 34 AUDIO
    TITLE "Step2_Track18_34"
    INDEX 01 00:28:24
  TRACK 35 AUDIO
    TITLE "Step2_Track18_35"
    INDEX 01 00:30:13
  TRACK 36 AUDIO
    TITLE "Step2_Track18_36"
    INDEX 01 00:30:37
  TRACK 37 AUDIO
    TITLE "Step2_Track18_37"
    INDEX 01 00:31:38
  TRACK 38 AUDIO
    TITLE "Step2_Track18_38"
    INDEX 01 00:31:40
  TRACK 39 AUDIO
    TITLE "Step2_Track18_39"
    INDEX 01 00:33:43
  TRACK 40 AUDIO
    TITLE "Step2_Track18_40"
    INDEX 01 00:33:63
  TRACK 41 AUDIO
    TITLE "Step2_Track18_41"
    INDEX 01 00:34:60
  TRACK 42 AUDIO
    TITLE "Step2_Track18_42"
    INDEX 01 00:35:01
  TRACK 43 AUDIO
    TITLE "Step2_Track18_43"
    INDEX 01 00:37:64
